<?xml version="1.0" encoding="utf-8"?>
<!-- Generator: Adobe Illustrator 23.0.1, SVG Export Plug-In . SVG Version: 6.00 Build 0)  -->
<svg version="1.1" id="Layer_1" xmlns="http://www.w3.org/2000/svg" xmlns:xlink="http://www.w3.org/1999/xlink" x="0px" y="0px"
	 viewBox="0 0 66 67" style="enable-background:new 0 0 66 67;" xml:space="preserve">
<style type="text/css">
	.st0{fill:url(#SVGID_1_);}
	.st1{fill:#00BFB1;}
	.st2{fill:url(#SVGID_2_);}
	.st3{fill:url(#SVGID_3_);}
	.st4{fill:#FFFFFF;}
	.st5{fill:url(#SVGID_4_);}
	.st6{fill:#A2A9A8;}
	.st7{fill:#030125;}
	.st8{fill:#FFFFFF;stroke:#F2F2F2;stroke-miterlimit:10;}
	.st9{fill:url(#SVGID_5_);}
	.st10{fill:#01E4D1;}
	.st11{fill:#67DDD3;}
	.st12{fill:url(#SVGID_6_);}
	.st13{fill:url(#SVGID_7_);}
	.st14{fill:url(#SVGID_8_);}
	.st15{fill:#646464;}
</style>
<linearGradient id="SVGID_1_" gradientUnits="userSpaceOnUse" x1="46.7942" y1="57.3923" x2="20.7464" y2="12.2761">
	<stop  offset="0.491" style="stop-color:#00BFB1"/>
	<stop  offset="0.5648" style="stop-color:#23C9BD"/>
	<stop  offset="0.8923" style="stop-color:#60DBD1"/>
</linearGradient>
<path class="st0" d="M44.05,11.5H21.95C15.9,11.5,11,16.4,11,22.45v22.11c0,6.04,4.9,10.95,10.95,10.95h22.11
	C50.1,55.5,55,50.6,55,44.55V22.45C55,16.4,50.1,11.5,44.05,11.5z M41.51,41.56c-0.41,1.05-1.02,1.96-1.81,2.75
	c-0.79,0.78-1.77,1.39-2.93,1.84c-1.16,0.45-2.48,0.67-3.96,0.67c-0.81,0-1.64-0.08-2.48-0.25c-0.84-0.17-1.65-0.41-2.44-0.7
	c-0.79-0.3-1.52-0.67-2.21-1.08c-0.69-0.42-1.29-0.89-1.81-1.39l1.79-2.83c0.14-0.21,0.32-0.39,0.56-0.51
	c0.24-0.14,0.49-0.2,0.77-0.2c0.36,0,0.72,0.11,1.08,0.34c0.37,0.22,0.78,0.47,1.24,0.75c0.46,0.27,0.99,0.52,1.58,0.75
	c0.6,0.22,1.3,0.34,2.11,0.34c1.1,0,1.95-0.24,2.56-0.72c0.61-0.49,0.91-1.25,0.91-2.3c0-0.6-0.17-1.1-0.5-1.48
	c-0.33-0.38-0.77-0.7-1.31-0.95s-1.16-0.47-1.85-0.66c-0.69-0.19-1.4-0.4-2.13-0.63c-0.73-0.24-1.44-0.52-2.13-0.86
	c-0.7-0.34-1.31-0.79-1.85-1.34c-0.54-0.56-0.98-1.25-1.31-2.08c-0.33-0.83-0.5-1.85-0.5-3.07c0-0.97,0.2-1.93,0.59-2.86
	c0.39-0.93,0.97-1.75,1.73-2.48c0.76-0.72,1.7-1.31,2.81-1.74c1.11-0.44,2.38-0.66,3.81-0.66c0.8,0,1.58,0.06,2.34,0.19
	c0.75,0.12,1.48,0.31,2.15,0.56c0.68,0.24,1.31,0.53,1.9,0.87c0.6,0.34,1.12,0.72,1.58,1.16l-1.5,2.8c-0.18,0.29-0.37,0.5-0.56,0.65
	c-0.2,0.14-0.45,0.21-0.76,0.21c-0.28,0-0.57-0.09-0.89-0.26c-0.32-0.18-0.68-0.37-1.08-0.58c-0.4-0.22-0.85-0.41-1.37-0.58
	c-0.51-0.17-1.1-0.26-1.75-0.26c-1.13,0-1.97,0.24-2.52,0.72c-0.56,0.48-0.83,1.14-0.83,1.96c0,0.53,0.16,0.96,0.5,1.31
	c0.33,0.35,0.77,0.64,1.31,0.89s1.16,0.48,1.86,0.69c0.7,0.21,1.41,0.44,2.13,0.7c0.73,0.26,1.44,0.56,2.14,0.9
	c0.7,0.35,1.32,0.79,1.86,1.33c0.54,0.53,0.98,1.18,1.31,1.96c0.33,0.77,0.5,1.7,0.5,2.78C42.14,39.38,41.93,40.51,41.51,41.56z"/>
</svg>
