<?xml version="1.0" encoding="utf-8"?>
<!-- Generator: Adobe Illustrator 23.0.1, SVG Export Plug-In . SVG Version: 6.00 Build 0)  -->
<svg version="1.1" id="Layer_1" xmlns="http://www.w3.org/2000/svg" xmlns:xlink="http://www.w3.org/1999/xlink" x="0px" y="0px"
	 viewBox="0 0 353 69" style="enable-background:new 0 0 353 69;" xml:space="preserve">
<style type="text/css">
	.st0{fill:url(#SVGID_1_);}
	.st1{fill:#00BFB1;}
	.st2{fill:url(#SVGID_2_);}
	.st3{fill:url(#SVGID_3_);}
	.st4{fill:#FFFFFF;}
	.st5{fill:#01E4D1;}
	.st6{fill:#67DDD3;}
	.st7{fill:url(#SVGID_4_);}
	.st8{fill:url(#SVGID_5_);}
	.st9{fill:url(#SVGID_6_);}
	.st10{fill:url(#SVGID_7_);}
	.st11{fill:#A2A9A8;}
	.st12{fill:#646464;}
	.st13{fill:#030125;}
</style>
<g>
	<linearGradient id="SVGID_1_" gradientUnits="userSpaceOnUse" x1="55.4056" y1="69.7954" x2="16.9259" y2="3.1466">
		<stop  offset="0.491" style="stop-color:#00BFB1"/>
		<stop  offset="0.5648" style="stop-color:#23C9BD"/>
		<stop  offset="0.8923" style="stop-color:#60DBD1"/>
	</linearGradient>
	<path class="st0" d="M51.36,2H18.7C9.77,2,2.53,9.24,2.53,18.17v32.66C2.53,59.76,9.77,67,18.7,67h32.66
		c8.93,0,16.17-7.24,16.17-16.17V18.17C67.53,9.24,60.29,2,51.36,2z M47.6,46.4c-0.61,1.55-1.51,2.9-2.68,4.06
		c-1.17,1.15-2.61,2.06-4.33,2.72c-1.72,0.66-3.67,0.99-5.85,0.99c-1.2,0-2.42-0.12-3.66-0.37s-2.44-0.6-3.61-1.04
		c-1.16-0.45-2.25-0.99-3.27-1.6c-1.02-0.62-1.91-1.31-2.67-2.06l2.64-4.18c0.2-0.31,0.47-0.57,0.82-0.76
		c0.35-0.2,0.73-0.29,1.14-0.29c0.53,0,1.06,0.16,1.59,0.5c0.54,0.33,1.15,0.7,1.83,1.11c0.68,0.4,1.46,0.77,2.34,1.11
		c0.88,0.33,1.92,0.5,3.11,0.5c1.62,0,2.88-0.36,3.78-1.07c0.9-0.72,1.35-1.85,1.35-3.4c0-0.89-0.25-1.63-0.74-2.19
		s-1.14-1.03-1.94-1.4s-1.72-0.7-2.74-0.98c-1.02-0.28-2.07-0.59-3.14-0.93c-1.08-0.35-2.12-0.77-3.14-1.27
		c-1.03-0.5-1.94-1.16-2.74-1.98c-0.8-0.82-1.45-1.84-1.94-3.07c-0.49-1.22-0.74-2.73-0.74-4.53c0-1.44,0.29-2.85,0.87-4.23
		c0.58-1.37,1.44-2.59,2.56-3.67c1.13-1.07,2.51-1.93,4.15-2.57c1.64-0.65,3.51-0.97,5.63-0.97c1.18,0,2.33,0.09,3.45,0.28
		c1.11,0.18,2.18,0.46,3.18,0.82s1.94,0.79,2.81,1.29c0.88,0.5,1.65,1.07,2.34,1.71l-2.22,4.14c-0.26,0.43-0.54,0.74-0.83,0.96
		c-0.29,0.21-0.67,0.31-1.12,0.31c-0.41,0-0.84-0.13-1.31-0.38c-0.47-0.26-1-0.54-1.59-0.86c-0.59-0.32-1.26-0.6-2.02-0.86
		c-0.75-0.25-1.62-0.38-2.59-0.38c-1.67,0-2.91,0.36-3.73,1.07s-1.23,1.68-1.23,2.89c0,0.78,0.24,1.42,0.74,1.93
		c0.49,0.51,1.14,0.95,1.94,1.32s1.72,0.71,2.75,1.02c1.03,0.31,2.08,0.65,3.15,1.03c1.08,0.38,2.13,0.82,3.16,1.33
		c1.03,0.51,1.95,1.17,2.75,1.96c0.8,0.79,1.45,1.75,1.94,2.89s0.74,2.51,0.74,4.11C48.53,43.19,48.22,44.85,47.6,46.4z"/>
	<g>
		<path class="st1" d="M113.93,21.9c-0.28,0.45-0.57,0.78-0.88,1.01c-0.31,0.22-0.7,0.34-1.19,0.34c-0.43,0-0.89-0.13-1.38-0.41
			c-0.5-0.27-1.05-0.57-1.68-0.91s-1.34-0.64-2.14-0.91c-0.8-0.27-1.72-0.41-2.74-0.41c-1.77,0-3.09,0.38-3.96,1.13
			c-0.87,0.76-1.3,1.78-1.3,3.06c0,0.82,0.26,1.5,0.78,2.04s1.21,1.01,2.06,1.4c0.85,0.39,1.82,0.75,2.91,1.08
			c1.09,0.33,2.21,0.69,3.34,1.09c1.14,0.4,2.25,0.87,3.34,1.41c1.09,0.54,2.06,1.23,2.91,2.07c0.85,0.84,1.53,1.86,2.06,3.06
			c0.52,1.2,0.78,2.65,0.78,4.35c0,1.88-0.33,3.65-0.98,5.29c-0.65,1.64-1.6,3.07-2.84,4.3c-1.24,1.22-2.77,2.18-4.59,2.88
			c-1.82,0.7-3.89,1.05-6.2,1.05c-1.27,0-2.56-0.13-3.88-0.39c-1.32-0.26-2.59-0.63-3.82-1.11c-1.23-0.48-2.39-1.04-3.47-1.69
			c-1.08-0.65-2.03-1.38-2.83-2.18l2.8-4.42c0.21-0.34,0.49-0.61,0.87-0.81c0.37-0.21,0.77-0.31,1.2-0.31
			c0.56,0,1.12,0.18,1.69,0.53s1.21,0.75,1.93,1.17c0.72,0.43,1.54,0.82,2.48,1.18s2.03,0.53,3.3,0.53c1.72,0,3.05-0.38,4-1.13
			c0.95-0.76,1.43-1.95,1.43-3.6c0-0.95-0.26-1.73-0.78-2.32c-0.52-0.6-1.21-1.09-2.06-1.48c-0.85-0.39-1.82-0.74-2.9-1.04
			c-1.08-0.3-2.19-0.63-3.33-0.99c-1.14-0.36-2.25-0.81-3.33-1.34c-1.08-0.53-2.05-1.23-2.9-2.1c-0.85-0.87-1.54-1.95-2.06-3.25
			s-0.78-2.9-0.78-4.8c0-1.53,0.31-3.02,0.92-4.48c0.62-1.46,1.52-2.75,2.71-3.89c1.19-1.14,2.66-2.05,4.39-2.73
			c1.74-0.68,3.72-1.02,5.96-1.02c1.25,0,2.47,0.1,3.65,0.29c1.18,0.2,2.31,0.49,3.37,0.87c1.06,0.38,2.06,0.84,2.98,1.37
			c0.92,0.53,1.75,1.13,2.48,1.8L113.93,21.9z"/>
		<path class="st1" d="M153.95,13.62v7.5h-11.47v33.28h-9.46V21.12h-11.47v-7.5H153.95z"/>
		<path class="st1" d="M177.63,46.92c1.27,0,2.4-0.21,3.4-0.63c1-0.42,1.84-1.02,2.53-1.81c0.69-0.78,1.22-1.74,1.58-2.87
			c0.36-1.13,0.55-2.41,0.55-3.85V13.62h9.46v24.15c0,2.5-0.41,4.8-1.22,6.88c-0.81,2.09-1.97,3.89-3.48,5.4
			c-1.51,1.51-3.35,2.69-5.51,3.53s-4.6,1.26-7.3,1.26c-2.72,0-5.17-0.42-7.33-1.26s-4-2.01-5.51-3.53
			c-1.51-1.51-2.67-3.31-3.47-5.4c-0.8-2.09-1.2-4.38-1.2-6.88V13.62h9.46v24.12c0,1.44,0.18,2.72,0.55,3.85
			c0.36,1.13,0.89,2.09,1.58,2.88s1.53,1.4,2.53,1.82C175.23,46.71,176.36,46.92,177.63,46.92z"/>
		<path class="st1" d="M233.71,13.62v7.5h-11.47v33.28h-9.46V21.12h-11.47v-7.5H233.71z"/>
		<path class="st1" d="M266.68,13.62v7.28h-16.74v9.51h12.82v7h-12.82v9.71h16.74v7.28h-26.25V13.62H266.68z"/>
		<path class="st1" d="M284.31,39.31v15.08h-9.46V13.62h13.27c2.95,0,5.46,0.3,7.54,0.91c2.08,0.61,3.78,1.45,5.09,2.53
			s2.27,2.36,2.87,3.83s0.9,3.08,0.9,4.81c0,1.33-0.18,2.57-0.53,3.75c-0.35,1.18-0.88,2.26-1.58,3.26c-0.7,1-1.56,1.89-2.58,2.67
			c-1.02,0.78-2.19,1.43-3.51,1.93c0.63,0.32,1.23,0.71,1.78,1.18c0.55,0.47,1.03,1.04,1.44,1.71l8.68,14.19h-8.56
			c-1.59,0-2.72-0.6-3.41-1.79l-6.77-11.84c-0.3-0.52-0.65-0.9-1.05-1.12c-0.4-0.22-0.97-0.34-1.69-0.34H284.31z M284.31,32.79h3.81
			c1.29,0,2.38-0.16,3.29-0.49c0.9-0.33,1.65-0.78,2.22-1.36s1-1.25,1.26-2.03c0.26-0.77,0.39-1.61,0.39-2.5
			c0-1.79-0.58-3.19-1.75-4.2c-1.17-1.01-2.97-1.51-5.42-1.51h-3.81V32.79z"/>
		<path class="st1" d="M320.89,13.67c0.28,0.04,0.53,0.11,0.76,0.21s0.44,0.25,0.64,0.43s0.44,0.44,0.7,0.76l19.37,24.49
			c-0.08-0.78-0.13-1.54-0.17-2.28c-0.04-0.74-0.06-1.43-0.06-2.08V13.62h8.34v40.78h-4.93c-0.73,0-1.34-0.11-1.85-0.34
			c-0.5-0.22-0.99-0.63-1.46-1.23l-19.23-24.29c0.06,0.71,0.1,1.4,0.14,2.08c0.04,0.68,0.06,1.32,0.06,1.92v21.86h-8.34V13.62h4.98
			C320.27,13.62,320.61,13.64,320.89,13.67z"/>
	</g>
</g>
</svg>
